<?xml version="1.0" encoding="utf-8"?>
<!-- Generator: Adobe Illustrator 19.0.0, SVG Export Plug-In . SVG Version: 6.00 Build 0)  -->
<svg version="1.1" id="Layer_1" xmlns="http://www.w3.org/2000/svg" xmlns:xlink="http://www.w3.org/1999/xlink" x="0px" y="0px"
	 viewBox="0 0 150 100" style="enable-background:new 0 0 150 100; fill: #29ABE2" xml:space="preserve">
<path id="XMLID_204_" d="M34.4,89.4l-15-4.6l2.8-14.5l49.7-29.7c-0.9-9.2,2.9-21.1,13.5-27.4c6.4-3.8,13.9-4.9,21.2-3
	C114,12,120.1,16.5,124,23c7.9,13.3,3.6,30.5-9.6,38.4c-9.7,5.8-21.6,5.4-30.5-1.1l-16.4,9.1L55,66.2l-3.7,13.4l-13.5-3.1L34.4,89.4
	z M21.8,83.4L33,86.9l3.3-12.7l13.6,3.1l3.7-13.5l13.6,3.5L84,57.9l0.5,0.4c8.3,6.3,19.6,6.9,28.8,1.4c12.3-7.3,16.3-23.4,8.9-35.7
	c-3.6-6-9.2-10.2-16-11.9s-13.7-0.7-19.7,2.8C78,20,72.9,30.7,74.1,41l0.1,0.6L24.1,71.5L21.8,83.4z M99.9,48.1
	c-3.7,0-7.4-1.9-9.4-5.3l0,0c-3.1-5.2-1.4-11.9,3.8-15c5.2-3.1,11.9-1.4,15,3.8s1.4,11.9-3.8,15C103.7,47.6,101.8,48.1,99.9,48.1z
	 M92.2,41.8c2.5,4.2,8,5.6,12.3,3.1c4.2-2.5,5.6-8,3.1-12.3c-2.5-4.2-8-5.6-12.3-3.1c-2.1,1.2-3.5,3.2-4.1,5.5S91,39.7,92.2,41.8
	L92.2,41.8z"/>
<path id="XMLID_141_" d="M137,65h-35v-0.6c2.2-0.2,4.4-0.6,6.5-1.4H137V65z M137,53h-15c-0.5,0.7-1,1.4-1.6,2H137V53z
	 M137,43h-10.7c-0.1,0.7-0.3,1.3-0.5,2H137V43z M11,74h11.6l0.4-2H11V74z M10,36h63c0-0.7,0.1-1.3,0.2-2H10V36z M10,45h35v-2H10V45z
	 M137,34h-10.3c0.1,0.7,0.1,1.3,0.2,2H137V34z M51,53v1.3l2.2-1.3H51z M96,65v-0.8c-1.7-0.2-3.3-0.6-4.9-1.2H76.9l-3.6,2H96z M10,55
	h36v-2H10V55z M53,45h13.6l3.4-2H53V45z M103,84h35v-2h-35V84z M137,24h-13.6c0.4,0.7,0.7,1.3,1,2H137V24z M53,74h85v-2H53V74z
	 M149,89c0,5.5-4.5,10-10,10H9C3.5,99-1,94.5-1,89V9C-1,3.5,3.5-1,9-1h130c5.5,0,10,4.5,10,10V89z M147,9c0-4.4-3.6-8-8-8H9
	C4.6,1,1,4.6,1,9v80c0,4.4,3.6,8,8,8h130c4.4,0,8-3.6,8-8V9z M21,82H11v2h9.7L21,82z M42,84h53v-2H42V84z M24.6,8.4c0-2.2,1.8-4,4-4
	s4,1.8,4,4s-1.8,4-4,4S24.6,10.7,24.6,8.4z M26.6,8.4c0,1.1,0.9,2,2,2s2-0.9,2-2s-0.9-2-2-2S26.6,7.3,26.6,8.4z M10,26h63v-2H10V26z
	 M36.4,63H10v2h23.1L36.4,63z M14.8,8.4c0-2.2,1.8-4,4-4s4,1.8,4,4s-1.8,4-4,4S14.8,10.7,14.8,8.4z M16.8,8.4c0,1.1,0.9,2,2,2
	s2-0.9,2-2s-0.9-2-2-2S16.8,7.3,16.8,8.4z M8.9,12.4c-2.2,0-4-1.8-4-4s1.8-4,4-4s4,1.8,4,4S11.1,12.4,8.9,12.4z M10.9,8.4
	c0-1.1-0.9-2-2-2s-2,0.9-2,2s0.9,2,2,2S10.9,9.5,10.9,8.4z"/>
</svg>
