<?xml version="1.0" encoding="utf-8"?>
<!-- Generator: Adobe Illustrator 19.0.0, SVG Export Plug-In . SVG Version: 6.00 Build 0)  -->
<svg version="1.1" id="Layer_1" xmlns="http://www.w3.org/2000/svg" xmlns:xlink="http://www.w3.org/1999/xlink" x="0px" y="0px"
	 viewBox="0 0 150 100" style="enable-background:new 0 0 150 100; fill: #29ABE2" xml:space="preserve">
<path id="XMLID_291_" d="M140,2c4.4,0,8,3.6,8,8v80c0,4.4-3.6,8-8,8H10c-4.4,0-8-3.6-8-8V10c0-4.4,3.6-8,8-8H140 M140,0
	H10C4.5,0,0,4.5,0,10v80c0,5.5,4.5,10,10,10h130c5.5,0,10-4.5,10-10V10C150,4.5,145.5,0,140,0L140,0z M9.7,13.5c-2.2,0-4-1.8-4-4
	s1.8-4,4-4s4,1.8,4,4S11.9,13.5,9.7,13.5z M9.7,7.5c-1.1,0-2,0.9-2,2s0.9,2,2,2s2-0.9,2-2S10.8,7.5,9.7,7.5z M19.6,13.5
	c-2.2,0-4-1.8-4-4s1.8-4,4-4s4,1.8,4,4S21.8,13.5,19.6,13.5z M19.6,7.5c-1.1,0-2,0.9-2,2s0.9,2,2,2s2-0.9,2-2S20.7,7.5,19.6,7.5z
	 M29.4,13.5c-2.2,0-4-1.8-4-4s1.8-4,4-4s4,1.8,4,4S31.7,13.5,29.4,13.5z M29.4,7.5c-1.1,0-2,0.9-2,2s0.9,2,2,2s2-0.9,2-2
	S30.6,7.5,29.4,7.5z M137.8,27h-56v-2h56V27z M73.8,27h-63v-2h63V27z M137.8,46h-35v-2h35V46z M94.8,46h-41v-2h41V46z M45.8,46h-35
	v-2h35V46z M137.8,66h-35v-2h35V66z M96.8,66h-86v-2h86V66z M138.8,75h-85v-2h85V75z M46.8,75h-35v-2h35V75z M138.8,85h-35v-2h35V85
	z M95.8,85h-53v-2h53V85z M33.8,85h-22v-2h22V85z M137.8,37h-36v-2h36V37z M96.8,37h-86v-2h86V37z M137.8,56h-86v-2h86V56z M46.8,56
	h-36v-2h36V56z"/>
</svg>
