<?xml version="1.0" encoding="utf-8"?>
<!-- Generator: Adobe Illustrator 19.0.0, SVG Export Plug-In . SVG Version: 6.00 Build 0)  -->
<svg version="1.1" id="Layer_1" xmlns="http://www.w3.org/2000/svg" xmlns:xlink="http://www.w3.org/1999/xlink" x="0px" y="0px"
	 viewBox="0 0 150 100" style="enable-background:new 0 0 150 100; fill:#29ABE2" xml:space="preserve">
<path id="XMLID_207_" d="M55.6,77.8c-1.1,0-2.1-0.1-3.2-0.2c-1-0.1-1.9-0.6-2.4-1.4c-0.6-0.8-0.8-1.7-0.6-2.7l0.3-1.6
	c0.1-0.7-0.3-1.4-1.1-1.7c-1.5-0.5-3.1-1.1-4.5-1.8c-0.7-0.4-1.5-0.2-1.9,0.5l-0.9,1.4c-0.5,0.8-1.4,1.4-2.3,1.5
	c-1,0.2-1.9-0.1-2.7-0.7c-1.9-1.5-3.6-3.1-5.1-5c-0.6-0.8-0.9-1.7-0.7-2.7c0.1-0.9,0.7-1.8,1.5-2.3l1.4-0.9c0.6-0.4,0.8-1.2,0.4-1.9
	c-0.4-0.7-0.7-1.4-1.1-2.2c-0.3-0.7-0.6-1.5-0.8-2.3c-0.2-0.7-1-1.2-1.7-1l-1.6,0.4c-0.9,0.2-1.9,0-2.7-0.6
	c-0.8-0.6-1.3-1.4-1.4-2.4c-0.3-2.4-0.3-4.8-0.1-7.1c0.1-1,0.6-1.9,1.4-2.4c0.8-0.6,1.7-0.8,2.7-0.6l1.6,0.3
	c0.7,0.1,1.4-0.3,1.7-1.1c0.5-1.5,1.1-3.1,1.8-4.5c0.4-0.7,0.2-1.5-0.5-1.9L31.7,32c-0.8-0.5-1.4-1.4-1.5-2.3
	c-0.2-1,0.1-1.9,0.7-2.7c1.5-1.9,3.1-3.6,5-5.1c0.8-0.6,1.7-0.9,2.7-0.7c0.9,0.1,1.8,0.7,2.3,1.5l0.9,1.4c0.4,0.6,1.2,0.8,1.9,0.4
	s1.4-0.7,2.2-1.1c0.7-0.3,1.5-0.6,2.3-0.8c0.7-0.2,1.2-1,1-1.7l-0.4-1.6c-0.2-0.9,0-1.9,0.6-2.7c0.6-0.8,1.4-1.3,2.4-1.4
	c2.4-0.3,4.8-0.3,7.1-0.1c1,0.1,1.9,0.6,2.4,1.4c0.6,0.8,0.8,1.7,0.6,2.7l-0.3,1.6c-0.1,0.7,0.3,1.4,1.1,1.7
	c1.5,0.5,3.1,1.1,4.5,1.8c0.7,0.4,1.5,0.2,1.9-0.5l0.9-1.4c0.5-0.8,1.4-1.4,2.3-1.5c1-0.2,1.9,0.1,2.7,0.7c1.9,1.5,3.6,3.1,5.1,5
	c0.6,0.8,0.9,1.7,0.7,2.7c-0.1,0.9-0.7,1.8-1.5,2.3l0,0L78,32.5c-0.6,0.4-0.8,1.2-0.4,1.9s0.7,1.4,1.1,2.2c0.3,0.7,0.6,1.5,0.8,2.3
	c0.2,0.7,1,1.2,1.7,1l1.6-0.4c0.9-0.2,1.9,0,2.7,0.6c0.8,0.6,1.3,1.4,1.4,2.4c0.3,2.4,0.3,4.8,0.1,7.1c-0.1,1-0.6,1.9-1.4,2.4
	c-0.8,0.6-1.7,0.8-2.7,0.6l-1.6-0.3c-0.7-0.1-1.4,0.3-1.7,1.1c-0.5,1.5-1.1,3.1-1.8,4.5c-0.4,0.7-0.2,1.5,0.5,1.9l1.4,0.9
	c0.8,0.5,1.4,1.4,1.5,2.3c0.2,1-0.1,1.9-0.7,2.7c-1.5,1.9-3.1,3.6-5,5.1c-0.8,0.6-1.7,0.9-2.7,0.7c-0.9-0.1-1.8-0.7-2.3-1.5
	l-0.9-1.4c-0.4-0.6-1.2-0.8-1.9-0.4c-0.7,0.4-1.4,0.7-2.2,1.1c-0.7,0.3-1.5,0.6-2.3,0.8c-0.7,0.2-1.2,1-1,1.7l0.4,1.6
	c0.2,0.9,0,1.9-0.6,2.7c-0.6,0.8-1.4,1.3-2.4,1.4C58.3,77.7,57,77.8,55.6,77.8z M43.5,66.3c0.5,0,1.1,0.1,1.6,0.4
	c1.3,0.7,2.7,1.2,4.1,1.7c1.7,0.5,2.8,2.2,2.5,4L51.3,74c-0.1,0.4,0,0.8,0.3,1.1c0.2,0.3,0.6,0.5,1,0.6c2.2,0.2,4.5,0.2,6.7-0.1
	c0.4-0.1,0.8-0.3,1-0.6c0.2-0.3,0.3-0.7,0.2-1.1l-0.4-1.6c-0.4-1.7,0.6-3.5,2.4-4c0.7-0.2,1.4-0.5,2.1-0.8s1.4-0.6,2-1
	c1.6-0.9,3.5-0.4,4.5,1.1L72,69c0.2,0.3,0.6,0.5,1,0.6s0.8-0.1,1.1-0.3c1.7-1.4,3.3-3,4.7-4.8c0.3-0.3,0.4-0.7,0.3-1.1
	c-0.1-0.4-0.3-0.7-0.6-1l-1.4-0.9c-1.5-1-2-2.9-1.2-4.5c0.7-1.3,1.2-2.7,1.7-4.1c0.5-1.7,2.2-2.8,4-2.5l1.6,0.3
	c0.4,0.1,0.8,0,1.1-0.3c0.3-0.2,0.5-0.6,0.6-1c0.2-2.2,0.2-4.5-0.1-6.7c-0.1-0.4-0.3-0.8-0.6-1c-0.3-0.2-0.7-0.3-1.1-0.2l-1.6,0.4
	c-1.7,0.4-3.5-0.6-4-2.4c-0.2-0.7-0.5-1.4-0.8-2.1c-0.3-0.7-0.6-1.3-1-2c-0.9-1.6-0.4-3.5,1.1-4.5l1.4-0.9c0.3-0.2,0.5-0.6,0.6-1
	s-0.1-0.8-0.3-1.1c-1.4-1.7-3-3.3-4.8-4.7c-0.3-0.3-0.7-0.4-1.1-0.3s-0.7,0.3-1,0.6l-0.9,1.4c-1,1.5-2.9,2-4.5,1.2
	c-1.3-0.7-2.7-1.2-4.1-1.7c-1.7-0.5-2.8-2.2-2.5-4l0.3-1.6c0.1-0.4,0-0.8-0.3-1.1c-0.2-0.3-0.6-0.5-1-0.6c-2.2-0.2-4.5-0.2-6.7,0.1
	c-0.4,0.1-0.8,0.3-1,0.6c-0.2,0.3-0.3,0.7-0.2,1.1l0.4,1.6c0.4,1.7-0.6,3.5-2.4,4c-0.7,0.2-1.4,0.5-2.1,0.8c-0.7,0.3-1.3,0.6-2,1
	c-1.6,0.9-3.5,0.4-4.5-1.1l-0.9-1.4c-0.2-0.3-0.6-0.5-1-0.6s-0.8,0.1-1.1,0.3c-1.7,1.4-3.3,3-4.7,4.8c-0.3,0.3-0.4,0.7-0.3,1.1
	c0.1,0.4,0.3,0.7,0.6,1l1.4,0.9c1.5,1,2,2.9,1.2,4.5c-0.7,1.3-1.2,2.7-1.7,4.1c-0.5,1.7-2.2,2.8-4,2.5L28,42c-0.4-0.1-0.8,0-1.1,0.3
	c-0.3,0.2-0.5,0.6-0.6,1c-0.2,2.2-0.2,4.5,0.1,6.7c0.1,0.4,0.3,0.8,0.6,1c0.3,0.2,0.7,0.3,1.1,0.2l1.6-0.4c1.7-0.4,3.5,0.6,4,2.4
	c0.2,0.7,0.5,1.4,0.8,2.1c0.3,0.7,0.6,1.3,1,2c0.9,1.6,0.4,3.5-1.1,4.5L33,62.7c-0.3,0.2-0.5,0.6-0.6,1c-0.1,0.4,0.1,0.8,0.3,1.1
	c1.4,1.7,3,3.3,4.8,4.7c0.3,0.3,0.7,0.4,1.1,0.3c0.4-0.1,0.7-0.3,1-0.6l0.9-1.4C41.2,66.9,42.3,66.3,43.5,66.3z M55.5,57.3
	c-4.4,0-8.6-2.6-10.5-6.9c-2.5-5.8,0.2-12.5,6-15l0,0c5.8-2.5,12.5,0.2,15,6s-0.2,12.5-6,15C58.5,57,57,57.3,55.5,57.3z M51.8,37.3
	c-4.8,2-7,7.6-4.9,12.3c2,4.8,7.6,7,12.3,4.9c4.8-2,7-7.6,4.9-12.3C62.1,37.5,56.5,35.2,51.8,37.3L51.8,37.3z M97.9,85.5
	c-0.2,0-0.4,0-0.6-0.1c-1.6-0.4-3.2-0.9-4.6-1.6c-0.7-0.3-1.2-0.9-1.4-1.6c-0.2-0.7-0.1-1.5,0.3-2.1l0.6-1c0.2-0.3,0.1-0.7-0.2-0.9
	c-0.5-0.3-0.9-0.7-1.3-1.1s-0.8-0.8-1.2-1.2c-0.2-0.3-0.6-0.3-0.9-0.1l-0.9,0.7c-0.6,0.4-1.3,0.6-2.1,0.5c-0.7-0.1-1.4-0.6-1.8-1.2
	c-0.9-1.4-1.6-2.9-2.1-4.4c-0.2-0.7-0.2-1.5,0.2-2.1c0.4-0.6,1-1.1,1.7-1.3l1.1-0.3c0.3-0.1,0.5-0.4,0.5-0.8
	C85,65.8,85,64.7,85,63.6c0-0.4-0.2-0.7-0.6-0.7l-1.1-0.2c-0.7-0.1-1.4-0.5-1.8-1.1C81,61,80.9,60.2,81,59.5
	c0.4-1.6,0.9-3.2,1.6-4.6c0.3-0.7,0.9-1.2,1.6-1.4s1.5-0.1,2.1,0.3l1,0.6c0.3,0.2,0.7,0.1,0.9-0.2c0.3-0.5,0.7-0.9,1.1-1.3
	c0.4-0.4,0.8-0.8,1.2-1.2c0.3-0.2,0.3-0.6,0.1-0.9l-0.6-1c-0.4-0.6-0.6-1.3-0.5-2.1c0.1-0.7,0.6-1.4,1.2-1.8
	c1.4-0.9,2.9-1.6,4.4-2.1c0.7-0.2,1.5-0.2,2.1,0.2s1.1,1,1.3,1.7l0.3,1.1c0.1,0.3,0.4,0.5,0.8,0.5c1.1-0.2,2.2-0.2,3.3-0.2
	c0.3,0,0.7-0.2,0.7-0.6l0.2-1.1c0.1-0.7,0.5-1.4,1.1-1.8c0.6-0.4,1.4-0.6,2.1-0.4c1.6,0.4,3.2,0.9,4.6,1.6c0.7,0.3,1.2,0.9,1.4,1.6
	c0.2,0.7,0.1,1.5-0.3,2.1l-0.6,1c-0.2,0.3-0.1,0.7,0.2,0.9c0.5,0.3,0.9,0.7,1.3,1.1c0.4,0.4,0.8,0.8,1.2,1.2
	c0.2,0.3,0.6,0.3,0.9,0.1l0.9-0.7c0.6-0.4,1.3-0.6,2.1-0.5c0.7,0.1,1.4,0.6,1.8,1.2c0.9,1.4,1.6,2.9,2.1,4.4
	c0.2,0.7,0.2,1.5-0.2,2.1c-0.4,0.6-1,1.1-1.7,1.3l-1.1,0.3c-0.3,0.1-0.5,0.4-0.5,0.8c0.2,1.1,0.2,2.2,0.2,3.3c0,0.4,0.2,0.7,0.6,0.7
	l1.1,0.2c0.7,0.1,1.4,0.5,1.8,1.1s0.6,1.4,0.4,2.1c-0.4,1.6-0.9,3.2-1.6,4.6c-0.3,0.7-0.9,1.2-1.6,1.4c-0.7,0.2-1.5,0.1-2.1-0.3
	l-1-0.6c-0.3-0.2-0.7-0.1-0.9,0.2c-0.3,0.5-0.7,0.9-1.1,1.3s-0.8,0.8-1.2,1.2c-0.3,0.2-0.3,0.6-0.1,0.9l0.7,0.9
	c0.4,0.6,0.6,1.3,0.5,2.1c-0.1,0.7-0.6,1.4-1.2,1.8c-1.4,0.9-2.9,1.6-4.4,2.1c-0.7,0.2-1.5,0.2-2.1-0.2c-0.6-0.4-1.1-1-1.3-1.7
	l-0.3-1.1c-0.1-0.3-0.4-0.5-0.8-0.5c-1.1,0.2-2.2,0.2-3.3,0.2c-0.3,0-0.7,0.2-0.7,0.6l-0.2,1.1c-0.1,0.7-0.5,1.4-1.1,1.8
	C99,85.4,98.4,85.5,97.9,85.5z M88.9,73.8c0.7,0,1.5,0.3,2,0.9c0.3,0.4,0.7,0.7,1,1c0.4,0.3,0.7,0.6,1.1,0.9
	c1.1,0.8,1.4,2.3,0.7,3.5l-0.6,1C93,81.3,93,81.5,93,81.6c0.1,0.2,0.2,0.3,0.4,0.4c1.3,0.7,2.8,1.2,4.2,1.5c0.2,0,0.4,0,0.5-0.1
	s0.2-0.2,0.3-0.4l0.2-1.1c0.2-1.4,1.4-2.3,2.8-2.3c1,0,2,0,3-0.2c1.4-0.2,2.7,0.6,3,2l0.3,1.1c0.1,0.2,0.2,0.4,0.3,0.4
	c0.2,0.1,0.4,0.1,0.5,0c1.4-0.5,2.8-1.1,4-1.9c0.2-0.1,0.3-0.3,0.3-0.5c0-0.1,0-0.3-0.1-0.5l-0.7-0.9c-0.8-1.1-0.7-2.6,0.4-3.6
	c0.4-0.3,0.7-0.7,1-1c0.3-0.4,0.6-0.7,0.9-1.1c0.8-1.1,2.3-1.4,3.5-0.7l1,0.6c0.2,0.1,0.4,0.1,0.5,0.1c0.2-0.1,0.3-0.2,0.4-0.4
	c0.7-1.3,1.2-2.8,1.5-4.2c0-0.2,0-0.4-0.1-0.5s-0.2-0.2-0.4-0.3l-1.1-0.2c-1.4-0.2-2.3-1.4-2.3-2.8c0-1,0-2-0.2-3
	c-0.2-1.4,0.6-2.7,2-3l1.1-0.3c0.2-0.1,0.4-0.2,0.4-0.3c0.1-0.2,0.1-0.4,0-0.5c-0.5-1.4-1.1-2.8-1.9-4c-0.1-0.2-0.3-0.3-0.5-0.3
	c-0.1,0-0.3,0-0.5,0.1l-0.9,0.7c-1.1,0.8-2.6,0.7-3.6-0.4c-0.3-0.4-0.7-0.7-1-1c-0.4-0.3-0.7-0.6-1.1-0.9c-1.1-0.8-1.4-2.3-0.7-3.5
	l0.6-1l0,0c0.1-0.2,0.1-0.4,0.1-0.5c-0.1-0.2-0.2-0.3-0.4-0.4c-1.3-0.7-2.8-1.2-4.2-1.5c-0.2,0-0.4,0-0.5,0.1s-0.2,0.2-0.3,0.4
	l-0.2,1.1c-0.2,1.4-1.4,2.3-2.8,2.3c-1,0-2,0-3,0.2c-1.4,0.2-2.7-0.6-3-2l-0.3-1.1c-0.1-0.2-0.2-0.4-0.3-0.4c-0.2-0.1-0.4-0.1-0.5,0
	c-1.4,0.5-2.8,1.1-4,1.9c-0.2,0.1-0.3,0.3-0.3,0.5c0,0.1,0,0.3,0.1,0.5l0.7,0.9c0.8,1.1,0.7,2.6-0.4,3.6c-0.4,0.3-0.7,0.7-1,1
	c-0.3,0.4-0.6,0.7-0.9,1.1c-0.8,1.1-2.3,1.4-3.5,0.7l-1-0.6c-0.2-0.1-0.4-0.1-0.5-0.1c-0.2,0.1-0.3,0.2-0.4,0.4
	c-0.7,1.3-1.2,2.8-1.5,4.2c0,0.2,0,0.4,0.1,0.5s0.2,0.2,0.4,0.3l1.1,0.2c1.4,0.2,2.3,1.4,2.3,2.8c0,1,0,2,0.2,3c0.2,1.4-0.6,2.7-2,3
	l-1,0.2c-0.2,0.1-0.4,0.2-0.4,0.3c-0.1,0.2-0.1,0.4,0,0.5c0.5,1.4,1.1,2.8,1.9,4c0.1,0.2,0.3,0.3,0.5,0.3c0.1,0,0.3,0,0.5-0.1
	l0.9-0.7C87.8,73.9,88.4,73.8,88.9,73.8z M101.9,71.5c-1.8,0-3.6-0.7-4.9-1.9c-3-2.7-3.3-7.4-0.5-10.5l0,0c1.3-1.5,3.1-2.3,5.1-2.4
	c2-0.1,3.9,0.6,5.3,1.9c1.5,1.3,2.3,3.1,2.4,5.1s-0.6,3.9-1.9,5.3s-3.1,2.3-5.1,2.4C102.2,71.5,102,71.5,101.9,71.5z M97.9,60.5
	c-2,2.2-1.8,5.6,0.4,7.6c1.1,1,2.4,1.5,3.9,1.4c1.4-0.1,2.8-0.7,3.7-1.8c1-1.1,1.5-2.5,1.4-3.9s-0.7-2.8-1.8-3.7
	c-1.1-1-2.5-1.5-3.9-1.4C100.2,58.8,98.9,59.4,97.9,60.5L97.9,60.5z"/>
<path id="XMLID_227_" d="M10,25h26.3c-0.8,1-1.5,2-2.2,2H10V25z M10,56h22.9c0,0,0,0-0.1-0.1c-0.4-1.2-1.6-1.9-2.8-1.6
	l-1.6,0.3c-0.7,0.2-1.4,0.5-2-0.5H10V56z M11,75h35v-2h-6.7c-0.5,0-1.1,0-1.6,0H11V75z M10,46h15.3c0,0,0-0.4,0-0.6
	c0.1-0.6,0.3-0.4,0.7-1.4H10V46z M10,37h24.6c0.2,0,0.1-1-0.3-2H10V37z M40,25.5l0.9,1.3c0,0.1,0.1,0.1,0.2,0.1h4.2
	c0.3,0,0.6-0.2,0.9-0.4c0.7-0.3,1.4-0.6,2.2-0.9c0.5-0.1,0.8,0.2,1.1-0.8h-9.9C39.8,25,39.9,25.4,40,25.5z M61.2,74.2l0.2,0.8h21.9
	c-0.3,0-0.5-1.1-0.7-1.7c0-0.1,0-0.3-0.1-0.3H61.3C61.1,74,61.1,73.8,61.2,74.2z M85.9,66L85.9,66c0-0.9-0.6-1.7-1.4-1.9L83.9,64
	h-4.4c0.5,1,0.8,1,0.7,2H85.9z M137,25H81v2h56V25z M137,64h-18.8c0,0,0,0.1,0,0.2c0.1,0.6,0.1,1.8,0.2,1.8H137V64z M85.9,44.8
	c0,0.4,0.1,1.2,0.1,1.2h8v-2h-8.4C85.8,44,85.8,44.5,85.9,44.8z M76.6,37H96v-2H76.5C76.3,36,76.3,37,76.6,37z M79.5,54
	c-0.4,1-0.7,0.8-0.9,1.3c-0.1,0.2-0.2,0.7-0.2,0.7h11.4c0.1,0,0.2-0.1,0.3-0.2c0.4-0.4,0.7-0.8,1.1-1.2c0.2-0.2,0.3-0.6,0.4-0.6
	H79.5z M62.4,25.6c1.3,0.4,2.5,1.4,3.7,1.4h3.4c0.2,0,0.3-0.2,0.5-0.4l0.9-1.5c0,0,0-0.1,0.1-0.1h-9.5C61.6,25,62,25.5,62.4,25.6z
	 M11,85h22v-2H11V85z M92.3,83H42v2h50.9C92.2,85,92,84,92.3,83z M113.1,84.1c-0.5,0.3-1.1,0.9-1.6,0.9H138v-2h-24.1
	C113.8,84,113.5,83.8,113.1,84.1z M106.7,85.1l-0.3-1.2c-0.1-0.4-0.3-0.9-0.6-0.9H103v2L106.7,85.1C106.7,85,106.7,85.1,106.7,85.1z
	 M121,75h17v-2h-16.2C121.6,74,121.3,75,121,75z M149,90c0,5.5-4.5,10-10,10H9c-5.5,0-10-4.5-10-10V10C-1,4.5,3.5,0,9,0h130
	c5.5,0,10,4.5,10,10V90z M147,10c0-4.4-3.6-8-8-8H9c-4.4,0-8,3.6-8,8v80c0,4.4,3.6,8,8,8h130c4.4,0,8-3.6,8-8V10z M137,44h-35v2h35
	V44z M24.4,10c0-2.2,1.8-4,4-4s4,1.8,4,4s-1.8,4-4,4S24.4,12.2,24.4,10z M26.4,10c0,1.1,0.9,2,2,2s2-0.9,2-2s-0.9-2-2-2
	S26.4,8.9,26.4,10z M137,35h-36v2h36V35z M137,54h-24.6c0.2,0,0.4,0.4,0.6,0.6c0.4,0.4,0.8,0.7,1.1,1.1c0.2,0.2,0.3,0.3,0.5,0.3h1.4
	c0.1,0,0.2,0,0.3-0.1l0.9-0.6c0.8-0.6,1.9-0.4,2.4,0.4c0.1,0.1,0.2,0.3,0.2,0.3H137V54z M32.5,64.2l0.3-0.2H10v2h21.5
	C31.5,66,31.9,64.6,32.5,64.2z M8.7,14c-2.2,0-4-1.8-4-4s1.8-4,4-4s4,1.8,4,4S10.9,14,8.7,14z M10.7,10c0-1.1-0.9-2-2-2s-2,0.9-2,2
	s0.9,2,2,2S10.7,11.1,10.7,10z M14.6,10c0-2.2,1.8-4,4-4s4,1.8,4,4s-1.8,4-4,4S14.6,12.2,14.6,10z M16.6,10c0,1.1,0.9,2,2,2
	s2-0.9,2-2s-0.9-2-2-2S16.6,8.9,16.6,10z"/>
</svg>
