<?xml version="1.0" encoding="utf-8"?>
<!-- Generator: Adobe Illustrator 19.0.0, SVG Export Plug-In . SVG Version: 6.00 Build 0)  -->
<svg version="1.1" id="Layer_1" xmlns="http://www.w3.org/2000/svg" xmlns:xlink="http://www.w3.org/1999/xlink" x="0px" y="0px"
	 viewBox="0 0 315 180" style="enable-background:new 0 0 315 180;" xml:space="preserve">
<style type="text/css">
	.st0{display:none;}
	.st1{display:inline;fill:#002E45;}
	.st2{fill:#2AAAE2;}
</style>
<g id="XMLID_16_" class="st0">
	<path id="XMLID_29_" class="st1" d="M-38.4,223.1c-0.4,1.1-0.9,2.1-1.3,2.9c-0.4,0.9-0.9,1.6-1.5,2.2c-0.6,0.6-1.3,1.1-2.2,1.4
		c-0.9,0.3-1.9,0.5-3.2,0.5c-1.4,0-2.5-0.2-3.4-0.6c-0.9-0.4-1.7-0.9-2.3-1.5c-0.6-0.6-1.1-1.4-1.5-2.2c-0.4-0.8-0.7-1.7-1.1-2.6
		l-14.7-38.4c-0.1-0.3-0.3-0.7-0.6-1.2c-0.3-0.5-0.5-0.7-0.8-0.7c-0.4,0-0.7,0.3-0.8,0.8c-0.1,0.5-0.1,0.8-0.1,0.9l0.2,44.8h-10.9
		v-50.7c0-1.9,0.4-3.3,1.2-4.3c0.8-1,1.8-1.8,2.8-2.3c1-0.5,2.1-0.8,3.1-0.9c1-0.1,1.7-0.1,2.2-0.1c1.6,0,3,0.2,4.2,0.6
		c1.1,0.4,2.1,0.9,2.8,1.6c0.7,0.7,1.4,1.5,1.9,2.4c0.5,0.9,0.9,1.9,1.3,2.8l14.9,38.4c0.3,0.6,0.5,1.1,0.8,1.5
		c0.2,0.4,0.5,0.6,0.8,0.6c0.3,0,0.5-0.2,0.8-0.6c0.2-0.4,0.5-0.9,0.8-1.5l14.9-38.4c0.6-1.6,1.3-2.9,2-3.9c0.7-1,1.5-1.7,2.4-2.2
		c0.9-0.5,1.8-0.9,2.7-1c0.9-0.2,1.9-0.2,3-0.2c2.7,0,4.9,0.6,6.7,1.8c1.8,1.2,2.6,3.1,2.6,5.8v50.7h-10.9l0.3-44.8
		c0-0.8-0.1-1.2-0.4-1.4c-0.2-0.2-0.5-0.3-0.6-0.3c-0.3,0-0.5,0.2-0.8,0.7c-0.3,0.5-0.5,0.9-0.6,1.2L-38.4,223.1z"/>
	<path id="XMLID_27_" class="st1" d="M56,171.8h11.7l-24.3,40v17.6H32.5v-17.6l-24.3-40h11.7L37.9,202L56,171.8z"/>
	<path id="XMLID_25_" class="st1" d="M105.7,229.3v-48.9H83.3v-8.6h55.8v8.6h-22.5v48.9H105.7z"/>
	<path id="XMLID_23_" class="st1" d="M211.3,229.3h-10.9V204h-29.9v25.3h-10.9v-57.6h10.9v23.6h29.9v-23.6h10.9V229.3z"/>
	<path id="XMLID_21_" class="st1" d="M237.6,181.6c0-1.2,0.1-2.5,0.3-3.8c0.2-1.3,0.9-2.6,2.1-3.7c1-1,2.2-1.6,3.4-1.9
		c1.2-0.3,2.4-0.4,3.5-0.4h27.3c1,0,2,0,3.1,0.1c1.1,0.1,2.2,0.3,3.3,0.6c1.1,0.3,2.2,0.9,3.2,1.6c1,0.7,1.9,1.7,2.8,3
		c1.4,2,2.2,4.1,2.5,6.3c0.3,2.2,0.4,4.3,0.4,6.4c0,2.1-0.1,4.2-0.4,6.5c-0.2,2.2-0.9,4.4-2.1,6.5c-0.4,0.7-0.9,1.4-1.4,2.1
		c-0.5,0.7-1.2,1.3-2.1,1.9c-0.9,0.6-1.9,1-3.1,1.4c-1.2,0.4-2.6,0.5-4.3,0.5h-7.4v0.4l21.9,20.3h-13.7L258,210.7
		c-0.6-0.6-1.2-1.4-1.8-2.3c-0.6-0.9-0.9-1.8-0.9-2.6v-1.3c0-1.2,0.4-2.1,1.2-2.8c0.8-0.7,2-1.1,3.6-1.1H271c0.9,0,2-0.1,3.1-0.4
		c1.1-0.3,2.1-1,2.8-2.1c0.3-0.4,0.5-1,0.7-1.7c0.2-0.7,0.3-1.4,0.4-2.2c0.1-0.7,0.1-1.5,0.2-2.2c0-0.7,0-1.3,0-1.8
		c0-2.3-0.2-4.1-0.6-5.3c-0.4-1.2-0.9-2.1-1.5-2.7c-0.9-0.9-1.9-1.4-3-1.5c-1.2-0.1-2.2-0.2-3-0.2h-17.6c-0.6,0-1.1,0-1.6,0.1
		c-0.4,0.1-0.9,0.3-1.3,0.8c-0.6,0.5-0.9,1-1,1.5c-0.1,0.5-0.1,1.1-0.1,1.7v44.8h-10.9V181.6z"/>
	<path id="XMLID_19_" class="st1" d="M314.4,229.3v-57.6h10.9v57.6H314.4z"/>
	<path id="XMLID_17_" class="st1" d="M359,229.3c-0.9,0-1.9-0.1-2.9-0.3c-1-0.2-1.8-0.6-2.5-1.2c-0.4-0.4-0.9-1-1.4-1.7
		c-0.5-0.8-0.7-1.8-0.7-3v-51.3h10.9v45.8c0,0.3,0,0.7,0,1.2c0,0.5,0.3,0.9,0.7,1.3c0.2,0.1,0.4,0.2,0.8,0.4c0.4,0.2,1,0.2,1.9,0.2
		h31.6v8.6H359z"/>
</g>
<g id="XMLID_2_">
	<rect id="XMLID_15_" x="225.3" y="135" class="st2" width="45" height="45"/>
	<rect id="XMLID_14_" x="135.3" y="135" class="st2" width="45" height="45"/>
	<rect id="XMLID_13_" x="44.1" y="135" class="st2" width="45" height="45"/>
	<rect id="XMLID_12_" x="90.3" y="90" class="st2" width="45" height="45"/>
	<rect id="XMLID_11_" x="90.3" y="45" class="st2" width="45" height="45"/>
	<rect id="XMLID_10_" x="45.3" y="45" class="st2" width="45" height="45"/>
	<rect id="XMLID_9_" x="45" y="0" class="st2" width="45" height="45"/>
	<rect id="XMLID_8_" y="0" class="st2" width="45" height="45"/>
	<rect id="XMLID_7_" x="270" y="0" class="st2" width="45" height="45"/>
	<rect id="XMLID_6_" x="225" y="0" class="st2" width="45" height="45"/>
	<rect id="XMLID_5_" x="180.3" y="90" class="st2" width="45" height="45"/>
	<rect id="XMLID_4_" x="180" y="45" class="st2" width="45" height="45"/>
	<rect id="XMLID_3_" x="225" y="45" class="st2" width="45" height="45"/>
</g>
</svg>
